<svg width="47" height="48" viewBox="0 0 47 48" fill="none" xmlns="http://www.w3.org/2000/svg">
<g clip-path="url(#clip0_2_140)">
<path d="M16.5481 2.20045C11.8851 3.81807 7.86376 6.88838 5.07473 10.9604C2.2857 15.0324 0.875978 19.8915 1.05263 24.8239C1.22928 29.7563 2.983 34.5021 6.05619 38.3641C9.12938 42.2262 13.36 45.0009 18.1268 46.2808C21.9913 47.278 26.0401 47.3218 29.9253 46.4084C33.4449 45.6179 36.6988 43.9268 39.3685 41.5009C42.147 38.8989 44.1639 35.5888 45.2021 31.9264C46.3306 27.9438 46.5314 23.7555 45.7891 19.6831H24.088V28.6851H36.6558C36.4047 30.1209 35.8664 31.4912 35.0733 32.7141C34.2802 33.937 33.2485 34.9873 32.04 35.8022C30.5053 36.8173 28.7753 37.5004 26.9611 37.8075C25.1415 38.1458 23.2752 38.1458 21.4556 37.8075C19.6114 37.4262 17.8668 36.665 16.3329 35.5725C13.8688 33.8282 12.0185 31.3501 11.0462 28.4919C10.0575 25.5802 10.0575 22.4235 11.0462 19.5117C11.7383 17.4708 12.8825 15.6125 14.3933 14.0755C16.1222 12.2844 18.311 11.0041 20.7197 10.3751C23.1283 9.74609 25.6637 9.79267 28.0476 10.5097C29.9099 11.0814 31.6128 12.0802 33.0208 13.4265C34.4379 12.0167 35.8525 10.6033 37.2647 9.18622C37.9939 8.4242 38.7888 7.69865 39.507 6.9184C37.3579 4.91847 34.8353 3.36228 32.0837 2.339C27.073 0.519598 21.5904 0.470704 16.5481 2.20045Z" fill="white"/>
<path d="M16.5481 2.20045C21.59 0.46953 27.0726 0.517137 32.0837 2.33535C34.8358 3.36559 37.3573 4.92927 39.5034 6.93663C38.7742 7.71688 38.0049 8.44608 37.2611 9.20445C35.8464 10.6167 34.433 12.024 33.0208 13.4265C31.6129 12.0802 29.9099 11.0814 28.0476 10.5097C25.6645 9.79015 23.1292 9.74088 20.7199 10.3673C18.3106 10.9938 16.1204 12.2717 14.3896 14.061C12.8788 15.5979 11.7347 17.4562 11.0426 19.4972L3.48438 13.6453C6.18975 8.28041 10.8739 4.17668 16.5481 2.20045Z" fill="#E33629"/>
<path d="M1.47895 19.4425C1.8852 17.4291 2.55964 15.4793 3.48426 13.6453L11.0425 19.5117C10.0537 22.4235 10.0537 25.5802 11.0425 28.4919C8.52428 30.4364 6.00488 32.3907 3.48426 34.3547C1.16959 29.7473 0.463654 24.4977 1.47895 19.4425Z" fill="#F8BD00"/>
<path d="M24.0879 19.6794H45.789C46.5313 23.7518 46.3305 27.9401 45.202 31.9228C44.1638 35.5851 42.1469 38.8952 39.3684 41.4972C36.9292 39.594 34.4791 37.7054 32.0399 35.8021C33.2492 34.9864 34.2814 33.935 35.0745 32.7108C35.8677 31.4866 36.4055 30.1149 36.6558 28.6778H24.0879C24.0843 25.6808 24.0879 22.6801 24.0879 19.6794Z" fill="#587DBD"/>
<path d="M3.48071 34.3547C6.00133 32.4101 8.52073 30.4559 11.0389 28.4919C12.0132 31.3511 13.8661 33.8293 16.3329 35.5725C17.8716 36.6599 19.6199 37.4149 21.4665 37.7892C23.2861 38.1276 25.1524 38.1276 26.972 37.7892C28.7863 37.4821 30.5162 36.7991 32.0509 35.7839C34.4901 37.6871 36.9402 39.5758 39.3794 41.479C36.7101 43.9063 33.4562 45.5986 29.9362 46.3902C26.0511 47.3035 22.0022 47.2598 18.1377 46.2626C15.0813 45.4465 12.2263 44.0079 9.75187 42.0368C7.13279 39.9575 4.99365 37.337 3.48071 34.3547Z" fill="#319F43"/>
</g>
<defs>
<clipPath id="clip0_2_140">
<rect width="46.669" height="46.669" fill="white" transform="translate(0.290405 0.665466)"/>
</clipPath>
</defs>
</svg>
