<svg width="65" height="57" viewBox="0 0 65 57" fill="none" xmlns="http://www.w3.org/2000/svg">
<path d="M54.8855 30.7396C52.3797 31.3413 49.7637 31.3122 47.2719 30.6548C44.78 29.9974 42.4901 28.7322 40.6072 26.9727C38.7243 25.2131 37.3072 23.0141 36.4827 20.5724C35.6583 18.1308 35.4522 15.5228 35.883 12.9819C35.8185 13.0463 35.7492 13.1057 35.6759 13.1598C35.1625 13.5503 34.5209 13.6951 33.2375 13.9848L32.0734 14.2488C27.5634 15.2699 25.3084 15.7796 24.7712 17.5048C24.2359 19.2281 25.7722 21.0266 28.8467 24.6218L29.6424 25.5513C30.515 26.5724 30.9532 27.0839 31.1494 27.7146C31.3455 28.3471 31.2795 29.0291 31.1475 30.3913L31.0265 31.6324C30.5627 36.4303 30.3299 38.8283 31.7342 39.8934C33.1385 40.9586 35.2505 39.9888 39.4709 38.0436L40.5654 37.5413C41.7644 36.9876 42.3639 36.7126 43 36.7126C43.6362 36.7126 44.2357 36.9876 45.4365 37.5413L46.5274 38.0436C50.7495 39.9869 52.8615 40.9586 54.264 39.8953C55.6702 38.8283 55.4374 36.4303 54.9735 31.6324L54.8855 30.7396Z" fill="#FFBE1B"/>
<path opacity="0.69" d="M37.7806 9.9145L37.1792 10.9925C36.5192 12.1768 36.1892 12.769 35.6759 13.1595C35.7492 13.1045 35.8183 13.0452 35.8831 12.9817C35.4521 15.5227 35.6582 18.1309 36.4827 20.5727C37.3073 23.0146 38.7246 25.2138 40.6077 26.9734C42.4909 28.733 44.7811 29.9981 47.2731 30.6553C49.7652 31.3125 52.3814 31.3414 54.8874 30.7393L54.8507 30.391C54.7206 29.0288 54.6546 28.3468 54.8507 27.7143C55.0469 27.0837 55.4832 26.5722 56.3577 25.551L57.1534 24.6215C60.2279 21.0282 61.7642 19.2297 61.2271 17.5045C60.6917 15.7793 58.4367 15.2678 53.9267 14.2485L52.7607 13.9845C51.4792 13.6948 50.8376 13.55 50.3224 13.1595C49.8091 12.769 49.4791 12.1768 48.8191 10.9925L48.2196 9.9145C45.8967 5.74917 44.7362 3.6665 43.0001 3.6665C41.2639 3.6665 40.1034 5.74917 37.7806 9.9145Z" fill="#FFBE1B"/>
<path d="M22.3336 48.2601C20.682 48.6567 18.9579 48.6374 17.3155 48.2042C15.6732 47.7709 14.1639 46.937 12.9229 45.7773C11.6819 44.6176 10.7479 43.1682 10.2045 41.559C9.66112 39.9497 9.52531 38.2308 9.80925 36.5562C9.76671 36.5986 9.72107 36.6377 9.67271 36.6734C9.33438 36.9307 8.91146 37.0262 8.06563 37.2171L7.29833 37.3911C4.32583 38.0642 2.83958 38.4001 2.48554 39.5371C2.13271 40.6729 3.14529 41.8583 5.17167 44.2279L5.69608 44.8405C6.27125 45.5135 6.56004 45.8507 6.68933 46.2663C6.81862 46.6832 6.77512 47.1327 6.68812 48.0305L6.60837 48.8485C6.30267 52.0107 6.14921 53.5912 7.07479 54.2933C8.00037 54.9953 9.39237 54.3561 12.174 53.0741L12.8953 52.743C13.6856 52.3781 14.0807 52.1968 14.5 52.1968C14.9193 52.1968 15.3144 52.3781 16.1059 52.743L16.8248 53.0741C19.6076 54.3549 20.9996 54.9953 21.924 54.2945C22.8508 53.5912 22.6973 52.0107 22.3916 48.8485L22.3336 48.2601Z" fill="#FFBE1B"/>
<path opacity="0.69" d="M11.0599 34.5345L10.6635 35.245C10.2285 36.0256 10.011 36.4159 9.67271 36.6733C9.72105 36.637 9.76656 36.5979 9.80925 36.556C9.52524 38.2308 9.66104 39.9499 10.2045 41.5593C10.7479 43.1686 11.6821 44.6181 12.9232 45.7779C14.1644 46.9376 15.6738 47.7714 17.3163 48.2046C18.9589 48.6378 20.6832 48.6568 22.3348 48.26L22.3107 48.0304C22.2249 47.1326 22.1814 46.6831 22.3107 46.2662C22.44 45.8505 22.7275 45.5134 23.3039 44.8404L23.8283 44.2278C25.8547 41.8594 26.8673 40.674 26.5133 39.537C26.1604 38.4 24.6742 38.0628 21.7017 37.391L20.9332 37.217C20.0885 37.0261 19.6656 36.9306 19.3261 36.6733C18.9878 36.4159 18.7703 36.0256 18.3353 35.245L17.9401 34.5345C16.4092 31.7892 15.6443 30.4165 14.5 30.4165C13.3557 30.4165 12.5908 31.7892 11.0599 34.5345Z" fill="#FFBE1B"/>
</svg>
